<?xml version="1.0" encoding="UTF-8" standalone="no"?>
<!-- Created with Inkscape (http://www.inkscape.org/) -->

<svg
   width="204"
   height="324"
   viewBox="0 0 53.975001 85.725002"
   version="1.1"
   id="svg5"
   inkscape:version="1.2.1 (9c6d41e410, 2022-07-14)"
   sodipodi:docname="yogore.svg"
   xmlns:inkscape="http://www.inkscape.org/namespaces/inkscape"
   xmlns:sodipodi="http://sodipodi.sourceforge.net/DTD/sodipodi-0.dtd"
   xmlns="http://www.w3.org/2000/svg"
   xmlns:svg="http://www.w3.org/2000/svg">
  <sodipodi:namedview
     id="namedview7"
     pagecolor="#ffffff"
     bordercolor="#000000"
     borderopacity="0.25"
     inkscape:showpageshadow="2"
     inkscape:pageopacity="0.0"
     inkscape:pagecheckerboard="0"
     inkscape:deskcolor="#d1d1d1"
     inkscape:document-units="mm"
     showgrid="false"
     inkscape:zoom="1.3228492"
     inkscape:cx="40.443007"
     inkscape:cy="179.15874"
     inkscape:window-width="1360"
     inkscape:window-height="705"
     inkscape:window-x="-8"
     inkscape:window-y="-8"
     inkscape:window-maximized="1"
     inkscape:current-layer="layer1" />
  <defs
     id="defs2" />
  <g
     inkscape:label="Layer 1"
     inkscape:groupmode="layer"
     id="layer1">
    <ellipse
       style="fill:none;stroke:#1a1a1a;stroke-width:0.316979"
       id="path177"
       cx="14.700749"
       cy="31.701618"
       rx="11.074368"
       ry="13.07447" />
    <text
       xml:space="preserve"
       style="font-size:21.848px;fill:#000000;stroke:none;stroke-width:1.82067"
       x="29.120733"
       y="39.490005"
       id="text1118"><tspan
         sodipodi:role="line"
         id="tspan1116"
         style="fill:#000000;stroke:none;stroke-width:1.82067"
         x="29.120733"
         y="39.490005">ス</tspan></text>
    <path
       style="fill:#333333;stroke-width:0.264583"
       d="m 14.400734,15.400785 c -0.46669,0.666701 -0.779996,1.473038 -1.400071,2.000102 -0.750032,0.637527 -1.756041,0.893616 -2.600133,1.400072 -1.3446747,0.806805 -1.7495592,1.370221 -3.0001528,2.400122 -0.5867871,0.483236 -1.2443759,0.881403 -1.8000916,1.400071 -1.2831281,1.197586 -1.2150307,1.259939 -1.6000817,2.800143 -0.016169,0.06468 -0.064419,0.217189 0,0.20001 3.7900202,-1.010672 3.4103579,-1.247738 7.2003671,-3.800193 1.871186,-1.260187 3.749021,-2.510921 5.600286,-3.800194 3.163377,-1.577822 5.557151,-4.193297 8.400428,-6.200316 0.172241,-0.121582 0.749109,-0.349089 0.60003,-0.20001 -0.339952,0.339952 -0.827969,0.495602 -1.200061,0.80004 -1.097026,0.897567 -2.069899,1.944808 -3.200163,2.800143 -1.341777,1.015399 -2.839373,1.81044 -4.200214,2.800143 -2.524345,1.835887 -5.335313,3.970839 -7.4003773,6.400326 -0.2896519,0.340767 -0.3519485,0.827938 -0.6000306,1.200061 -0.5813674,0.872051 -1.1607519,1.412558 -2.0001021,2.000102 -0.3184763,0.222933 -0.6625214,0.407157 -1.0000509,0.60003 -0.1294365,0.07396 -0.4954582,0.314537 -0.4000203,0.200012 1.6341907,-1.96103 2.5679833,-2.036798 5.0002552,-3.800195 0.06465,-0.04687 6.320612,-4.867156 7.200367,-5.600285 0.114525,-0.09544 -0.302198,0.08751 -0.400021,0.20001 -1.243537,1.430068 -2.366856,2.961343 -3.600183,4.400224 -2.570689,2.999137 -1.773076,1.946443 -4.2002143,4.200213 -2.6756553,2.484538 0.5204183,-0.112239 -2.0001021,1.400072 -0.057169,0.0343 0.047143,0.152868 0,0.200012 -0.047143,0.04714 -0.1701943,0.05963 -0.2000102,0 -0.059632,-0.119264 -0.013269,-0.267343 0,-0.400021 0.053485,-0.534845 -0.1152454,-1.164728 0.2000102,-1.600081 1.6825978,-2.323588 4.6860054,-5.000289 7.2003674,-6.600337 1.081932,-0.688503 2.276493,-1.182068 3.400173,-1.800092 0.210627,-0.115845 0.810163,-0.516761 0.600031,-0.400021 -3.628845,2.016025 -7.405633,3.8113 -10.8005508,6.200317 -0.8516797,0.59933 -1.5869102,1.349532 -2.4001224,2.0001 -0.2208745,0.1767 -0.8683726,0.689481 -0.6000306,0.600033 0.4242856,-0.14143 0.7934942,-0.413689 1.2000611,-0.600033 2.7938637,-1.280519 5.5403047,-2.675425 8.4004287,-3.800192 3.080447,-1.211412 6.235666,-2.230301 9.400479,-3.200164 0.975096,-0.298819 1.997765,-0.412082 3.000152,-0.60003 0.06553,-0.01229 0.170196,-0.05963 0.200012,0 0.363948,0.727895 -0.897837,1.359751 -1.400072,2.000102 -2.230183,2.843483 -4.424004,5.715531 -6.600337,8.60044 -1.124954,1.491215 -2.537393,4.291726 -4.200214,5.400275 -0.05547,0.03698 -0.0516,-0.157792 0,-0.200012 1.434622,-1.173781 2.90885,-2.299396 4.400224,-3.400173 1.309544,-0.966568 2.632518,-1.917764 4.000204,-2.800141 0.701962,-0.45288 1.478534,-0.779143 2.200112,-1.200063 0.08144,-0.04751 0.242176,-0.284342 0.200011,-0.200009 -2.32777,4.655537 -0.726181,1.276361 -5.600286,6.800345 -0.72704,0.823978 -2.241287,3.202678 -2.800143,4.400224 -0.273458,0.585983 -0.313383,1.513446 -0.80004,2.000102"
       id="path192" />
    <path
       style="fill:#333333;stroke-width:0.264583"
       d="m 39.001988,17.000867 c -2.43627,-0.100824 -5.165283,0.40171 -6.800347,2.400122 -0.42218,0.515998 -0.820568,1.051926 -1.20006,1.600082 -0.221282,0.319627 -0.335505,0.715177 -0.60003,1.000051 -1.356109,1.460423 -3.184065,2.694385 -4.800246,3.800193 -9.205833,6.298728 -0.350208,0.04299 -9.800499,6.600337 -2.158593,1.497799 -4.190263,3.17948 -6.4003267,4.600234 -0.3762058,0.241848 -0.8422722,0.33169 -1.2000611,0.60003 -1.5666249,1.17497 -1.7680424,2.258671 -2.6001326,4.200215 -0.07318,0.170752 -0.5061185,1.65313 -0.8000407,1.800093 -0.2385261,0.119261 -1.0667212,0 -0.800041,0 3.3287993,0 -2.9776825,0.02888 5.6002856,-0.400021 3.8576275,-0.192881 7.9594365,-0.157308 11.8006015,0.200009 1.408206,0.130996 2.793864,0.450419 4.200214,0.60003 1.728788,0.183915 3.469807,0.232559 5.200267,0.400021 5.483952,0.530707 6.976464,1.095579 12.00061,0.800042 0.01098,-5.29e-4 2.388974,-0.272142 2.600132,-0.800042 0.102092,-0.255225 0.06363,-0.561371 0.200012,-0.800039 0.179999,-0.315002 1.468657,-1.309087 1.600081,-1.400072 1.353195,-0.936828 3.223845,-1.405331 4.200213,-2.800143 0.215643,-0.30806 0.686162,-1.570892 0.400021,-2.000102 -0.266679,-0.400021 -0.822026,-0.503015 -1.20006,-0.800042 -2.134799,-1.677339 -3.506891,-3.120295 -4.400225,-5.800293 -0.126497,-0.379495 0,-0.800042 0,-1.200063 0,-2.317078 0.337325,-3.553024 -0.800042,-5.600285 C 45.127579,23.5067 44.588252,23.214731 44.202254,22.801162 43.654479,22.214261 43.169847,21.568746 42.602173,21.001071 41.734086,20.132983 40.015649,19.30548 39.402009,18.200928 39.197235,17.832332 39.13533,17.400887 39.001988,17.000867 Z"
       id="path194" />
    <path
       style="fill:#333333;stroke-width:0.264583"
       d="m 21.601101,13.400683 c -1.181628,0.06661 -1.59668,2.097981 -2.400122,2.600133 -1.248938,0.780586 -2.827525,0.807825 -4.000204,1.800092 -0.640171,0.541683 -2.537861,2.829696 -3.000153,3.600183 -0.249718,0.416197 -0.304832,0.924132 -0.40002,1.400071 -0.03464,0.173202 0.122747,0.877304 0,1.000052 -0.105415,0.105414 -0.294606,0.09459 -0.400021,0.20001 -1.066329,1.066329 -2.1938048,2.545874 -3.0001526,3.800192 -0.4990793,0.776346 -0.5477095,1.947783 -1.2000614,2.600135 -0.3018615,0.30186 -0.6448514,0.563239 -1.0000509,0.800039 -0.248082,0.165388 -0.609165,0.170971 -0.8000407,0.400021 -0.4761063,0.571328 -0.3009799,2.106861 -0.4000204,2.800143 -0.2026605,1.418622 -0.5217461,2.739504 -0.4000206,4.200213 0.1337345,1.604812 0.7392734,3.529356 0.6000308,5.200266 -0.1329962,1.595956 -0.2672855,3.207425 -0.4000203,4.800246 -0.3628118,4.35374 0.042479,-1.654945 -0.6000308,2.200111 -0.1493356,0.896014 -0.1445456,3.532949 0,4.400224 0.049017,0.2941 0.2520928,0.541168 0.4000203,0.800042 0.6348743,1.11103 1.402388,0.400021 2.4001225,0.400021 2.2878192,0 1.0335897,0.09162 4.6002351,-0.800042 1.547076,-0.386771 3.225221,-0.435102 4.200214,-1.800093 0.49199,-0.688787 0.437852,-1.475734 0.80004,-2.200111 0.107503,-0.215005 0.341719,-0.366826 0.400021,-0.60003 0.08085,-0.323397 -0.04714,-0.670052 0,-1.000051 0.745366,-5.217564 0.08526,2.461684 0.800041,-4.400224 0.242646,-2.329405 0.305002,-4.677005 0.60003,-7.000359 0.419159,-3.30087 -0.212113,-4.790562 1.800092,-6.400326 1.238251,-0.9906 1.216078,-0.36008 1.600082,-1.80009 0.511534,-1.918256 0.458104,-3.862655 0.80004,-5.800297 0.09554,-0.54141 0.32736,-1.055129 0.400021,-1.600081 0.0793,-0.594767 -0.268342,-1.263408 0,-1.800092 0.08512,-0.170248 1.298517,-0.347694 1.600081,-0.800041 0.539673,-0.809508 0.103934,-3.343382 0.200011,-4.400224 0.159722,-1.756948 0.879429,-2.238267 1.400071,-3.800194"
       id="path196" />
    <path
       style="fill:#333333;stroke-width:0.264583"
       d="m 41.602122,15.600795 c -5.527227,-0.178901 -11.07428,0.197378 -16.600847,0 -2.083507,-0.07441 -4.130084,-0.278241 -6.200316,-0.40002 -0.598996,-0.03524 -1.201587,0.04275 -1.800092,0 -2.069845,-0.147846 -3.96491,-1.060839 -6.000306,-1.400071 -0.500086,-0.08335 -1.0902751,0 -1.6000817,0 -2.0475633,0 -1.2928949,-0.169066 -2.4001224,0.20001 -0.8400429,0.280014 -1.9601,-0.280014 -2.8001428,0 -0.2280468,0.07601 -0.4726282,0.196176 -0.6000306,0.40002 -1.4126089,2.260175 -0.5705567,6.276126 -0.8000407,8.800449 -0.061556,0.677112 -0.3384648,1.32299 -0.4000204,2.000102 -0.1244229,1.368652 0,2.825278 0,4.200215 0,1.478682 -0.1840244,3.128039 0,4.600233 0.067032,0.536255 0.4739331,1.571371 0.6000306,2.000102 0.4398174,1.49538 0.805856,2.613702 1.4000712,4.000204 0.5806464,1.354841 1.3092684,3.054845 2.2001123,4.200215 1.4702239,1.890287 1.0463239,0.634736 2.6001326,1.80009 0.8429259,0.632196 0.6570364,1.914282 1.6000819,2.600135 1.770856,1.287893 7.715634,0.467299 9.800499,0.200009 4.411125,-0.565529 9.484096,-0.500155 13.600693,-2.400123 0.738909,-0.341035 1.328459,-0.940525 2.000104,-1.400072 0.595167,-0.40722 1.330775,-0.652523 1.80009,-1.20006 1.112412,-1.297813 1.529305,-7.172634 1.800093,-9.000458 0.61291,-4.137152 0.138536,-2.20041 1.20006,-6.800347 0.989417,-4.287468 1.157898,-3.905062 1.800092,-8.400429 0.27577,-1.930396 -1.156258,-1.95841 -2.600131,-2.600132 -0.310415,-0.137961 -0.200012,-1.236625 -0.200012,-0.800041"
       id="path198" />
    <path
       style="fill:#333333;stroke-width:0.264583"
       d="M 38.801979,60.60309 -54.802793,23.001173"
       id="path200" />
  </g>
</svg>
